#N canvas 465 50 519 337 10;
#X msg 69 164 start;
#X obj 69 204 readsf~;
#X obj 69 16 inlet;
#X obj 69 289 outlet~;
#X obj 132 136 symbol \$1;
#X msg 132 163 open \$1;
#X obj 69 113 trigger b b;
#X obj 319 19 inlet;
#X obj 273 237 line~;
#X msg 273 212 1 20;
#X msg 314 212 0 20;
#X obj 69 264 *~;
#X obj 210 86 spigot 0;
#X msg 221 61 1;
#X msg 255 62 0;
#X obj 108 225 bng 15 250 50 0 empty empty empty 17 7 0 10 -262144
-1 -1;
#X obj 83 60 send \$0-rampUp;
#X obj 319 51 send \$0-rampDown;
#X obj 273 166 receive \$0-rampUp;
#X obj 314 188 receive \$0-rampDown;
#X connect 0 0 1 0;
#X connect 1 0 11 0;
#X connect 1 1 15 0;
#X connect 2 0 6 0;
#X connect 2 0 13 0;
#X connect 2 0 16 0;
#X connect 4 0 5 0;
#X connect 5 0 1 0;
#X connect 6 0 0 0;
#X connect 6 1 4 0;
#X connect 7 0 14 0;
#X connect 7 0 17 0;
#X connect 8 0 11 1;
#X connect 9 0 8 0;
#X connect 10 0 8 0;
#X connect 11 0 3 0;
#X connect 12 0 6 0;
#X connect 13 0 12 1;
#X connect 14 0 12 1;
#X connect 15 0 12 0;
#X connect 18 0 9 0;
#X connect 19 0 10 0;
