#N canvas 871 386 338 283 10;
#X msg 59 99 start;
#X obj 60 194 readsf~;
#X obj 59 23 inlet;
#X obj 60 237 outlet~;
#X obj 122 71 symbol \$1;
#X msg 122 98 open \$1;
#X obj 59 48 trigger b b;
#X obj 157 233 outlet;
#X obj 187 20 inlet;
#X connect 0 0 1 0;
#X connect 1 0 3 0;
#X connect 1 1 7 0;
#X connect 2 0 6 0;
#X connect 4 0 5 0;
#X connect 5 0 1 0;
#X connect 6 0 0 0;
#X connect 6 1 4 0;
#X connect 8 0 4 1;
