#N canvas 0 0 450 300 10;
#X obj 71 35 inlet;
#X obj 210 34 inlet;
#X obj 91 97 +;
#X obj 192 92 float;
#X msg 193 66 0;
#X msg 77 67 1;
#X obj 89 143 select 1;
#X obj 79 203 outlet;
#X connect 0 0 5 0;
#X connect 1 0 4 0;
#X connect 2 0 3 0;
#X connect 2 0 6 0;
#X connect 3 0 2 1;
#X connect 4 0 3 0;
#X connect 5 0 2 0;
#X connect 6 0 7 0;
