#N canvas 102 276 691 535 10;
#X obj 28 100 print;
#X floatatom 204 97 5 0 0 0 - - -;
#X obj 256 64 tgl 15 0 empty empty empty 17 7 0 10 -262144 -1 -1 7
7;
#X text 287 64 Any clients connected?;
#X text 250 96 Number of clients connected;
#X obj 76 295 catch~ audioOut;
#X obj 76 335 dac~;
#X obj 106 63 netreceive 7779;
#N canvas 1300 57 450 300 affect 1;
#X obj 61 26 inlet;
#X obj 61 67 route Start Stop;
#N canvas 1165 414 702 452 StartStopGame 1;
#X obj 312 346 throw~ audioOut;
#X obj 51 17 inlet;
#X obj 57 194 inlet;
#X obj 27 237 LoopSample score.wav;
#X obj 28 329 *~ 0;
#X obj 69 295 dbtorms;
#X obj 69 269 float 50;
#X obj 28 47 PlaySample start.wav;
#X connect 1 0 7 0;
#X connect 2 0 3 1;
#X connect 3 0 4 0;
#X connect 4 0 0 0;
#X connect 5 0 4 1;
#X connect 6 0 5 0;
#X connect 7 0 0 0;
#X connect 7 1 3 0;
#X restore 60 138 pd StartStopGame;
#X obj 60 104 bng 15 250 50 0 empty empty empty 17 7 0 10 -262144 -1
-1;
#X obj 134 104 bng 15 250 50 0 empty empty empty 17 7 0 10 -262144
-1 -1;
#X connect 0 0 1 0;
#X connect 1 0 3 0;
#X connect 1 1 4 0;
#X connect 3 0 2 0;
#X connect 4 0 2 1;
#X restore 386 179 pd affect;
#N canvas 517 85 812 300 effect 1;
#N canvas 1381 435 336 286 StartStopFootsteps 0;
#X obj 31 244 throw~ audioOut;
#X obj 51 17 inlet;
#X obj 31 192 *~ 1;
#X floatatom 107 157 5 0 0 0 - - -;
#X obj 172 13 inlet;
#X obj 48 117 LoopSample steps.wav;
#X obj 52 63 RSLatch;
#X obj 168 63 RSLatch;
#X connect 1 0 6 0;
#X connect 1 0 7 1;
#X connect 2 0 0 0;
#X connect 3 0 2 1;
#X connect 4 0 6 1;
#X connect 4 0 7 0;
#X connect 5 0 2 0;
#X connect 6 0 5 0;
#X connect 7 0 5 1;
#X restore 52 164 pd StartStopFootsteps;
#X obj 91 32 inlet;
#X obj 77 122 bng 15 250 50 0 empty empty empty 17 7 0 10 -262144 -1
-1;
#X obj 131 126 bng 15 250 50 0 empty empty empty 17 7 0 10 -262144
-1 -1;
#N canvas 691 584 450 300 GoblinHurt 1;
#X obj 92 41 inlet;
#X obj 93 84 moses 2;
#X obj 147 249 throw~ audioOut;
#X obj 247 130 moses 5;
#X obj 18 133 PlaySample goblin-1.wav;
#X obj 153 176 PlaySample goblin-2.wav;
#X obj 304 178 PlaySample goblin-3.wav;
#X connect 0 0 1 0;
#X connect 1 0 4 0;
#X connect 1 1 3 0;
#X connect 3 0 5 0;
#X connect 3 1 6 0;
#X connect 4 0 2 0;
#X connect 5 0 2 0;
#X connect 6 0 2 0;
#X restore 253 161 pd GoblinHurt;
#X floatatom 247 122 5 1 5 0 - - -;
#X text 290 121 Damage value;
#N canvas 320 361 492 444 PlayerHurt 1;
#X obj 114 34 inlet;
#X obj 78 269 throw~ audioOut;
#X floatatom 99 132 5 0 0 0 - - -;
#X obj 101 76 random 5;
#X obj 101 106 + 1;
#X obj 131 177 makefilename hit%d.wav;
#X obj 76 221 PlaySample;
#X connect 0 0 3 0;
#X connect 2 0 5 0;
#X connect 2 0 6 0;
#X connect 3 0 4 0;
#X connect 4 0 2 0;
#X connect 5 0 6 1;
#X connect 6 0 1 0;
#X restore 391 162 pd PlayerHurt;
#N canvas 1119 313 450 300 PlayerDie 1;
#X obj 122 23 inlet;
#X obj 129 132 throw~ audioOut;
#X obj 126 87 PlaySample die1.wav;
#X connect 0 0 2 0;
#X connect 2 0 1 0;
#X restore 505 163 pd PlayerDie;
#X obj 498 124 bng 15 250 50 0 empty empty empty 17 7 0 10 -262144
-1 -1;
#X obj 384 125 bng 15 250 50 0 empty empty empty 17 7 0 10 -262144
-1 -1;
#X obj 189 60 route StartRun StopRun GoblinHurt PlayerHurt PlayerDie
BossHurt;
#N canvas 861 450 450 300 BossHurt 1;
#X obj 119 67 inlet;
#X obj 121 121 PlaySample bossHurt.wav;
#X obj 120 192 throw~ audioOut;
#X connect 0 0 1 0;
#X connect 1 0 2 0;
#X restore 639 164 pd BossHurt;
#X obj 634 120 bng 15 250 50 0 empty empty empty 17 7 0 10 -262144
-1 -1;
#X connect 1 0 11 0;
#X connect 2 0 0 0;
#X connect 3 0 0 1;
#X connect 5 0 4 0;
#X connect 9 0 8 0;
#X connect 10 0 7 0;
#X connect 11 0 2 0;
#X connect 11 1 3 0;
#X connect 11 2 5 0;
#X connect 11 3 10 0;
#X connect 11 4 9 0;
#X connect 11 5 13 0;
#X connect 13 0 12 0;
#X restore 88 182 pd effect;
#X obj 106 138 route effect zone interface affect;
#N canvas 447 48 450 300 zone 1;
#X obj 98 27 inlet;
#X obj 81 143 bng 15 250 50 0 empty empty empty 17 7 0 10 -262144 -1
-1;
#X obj 128 140 bng 15 250 50 0 empty empty empty 17 7 0 10 -262144
-1 -1;
#N canvas 1384 546 450 300 Goblin 1;
#X obj 80 49 inlet;
#X obj 175 47 inlet;
#X obj 71 119 LoopSample goblin-zone.wav;
#X obj 70 229 throw~ audioOut;
#X connect 0 0 2 0;
#X connect 1 0 2 1;
#X connect 2 0 3 0;
#X restore 82 194 pd Goblin;
#X obj 83 93 route StartGoblin StopGoblin StartBoss StopBoss;
#X obj 194 139 bng 15 250 50 0 empty empty empty 17 7 0 10 -262144
-1 -1;
#X obj 250 136 bng 15 250 50 0 empty empty empty 17 7 0 10 -262144
-1 -1;
#N canvas 911 307 450 250 Boss 1;
#X obj 99 40 inlet;
#X obj 183 39 inlet;
#X obj 99 139 LoopSample boss-zone.wav;
#X obj 98 200 throw~ audioOut;
#X connect 0 0 2 0;
#X connect 1 0 2 1;
#X connect 2 0 3 0;
#X restore 189 191 pd Boss;
#X connect 0 0 4 0;
#X connect 1 0 3 0;
#X connect 2 0 3 1;
#X connect 4 0 1 0;
#X connect 4 1 2 0;
#X connect 4 2 5 0;
#X connect 4 3 6 0;
#X connect 5 0 7 0;
#X connect 6 0 7 1;
#X restore 161 181 pd zone;
#N canvas 203 505 450 300 interface 1;
#X obj 104 33 inlet;
#X obj 99 119 bng 15 250 50 0 empty empty empty 17 7 0 10 -262144 -1
-1;
#N canvas 506 505 450 300 selectItem 1;
#X obj 91 50 inlet;
#X obj 89 149 *~ 1;
#X floatatom 130 113 5 0 0 0 - - -;
#X obj 91 199 throw~ audioOut;
#X obj 87 84 PlaySample selectItem.wav;
#X connect 0 0 4 0;
#X connect 1 0 3 0;
#X connect 2 0 1 1;
#X connect 4 0 1 0;
#X restore 99 151 pd selectItem;
#X obj 198 117 bng 15 250 50 0 empty empty empty 17 7 0 10 -262144
-1 -1;
#N canvas 858 452 450 300 gameOver 1;
#X obj 109 45 inlet;
#X obj 111 159 throw~ audioOut;
#X obj 109 89 PlaySample gameOver.wav;
#X connect 0 0 2 0;
#X connect 2 0 1 0;
#X restore 215 148 pd gameOver;
#X obj 103 74 route selectItem gameOver gameWin;
#N canvas 619 670 450 300 gameWin 1;
#X obj 96 49 inlet;
#X obj 97 96 PlaySample gameWin.wav;
#X obj 94 155 throw~ audioOut;
#X connect 0 0 1 0;
#X connect 1 0 2 0;
#X restore 340 149 pd gameWin;
#X obj 321 117 bng 15 250 50 0 empty empty empty 17 7 0 10 -262144
-1 -1;
#X connect 0 0 5 0;
#X connect 1 0 2 0;
#X connect 3 0 4 0;
#X connect 5 0 1 0;
#X connect 5 1 3 0;
#X connect 5 2 7 0;
#X connect 7 0 6 0;
#X restore 257 181 pd interface;
#X connect 5 0 6 0;
#X connect 5 0 6 1;
#X connect 7 0 0 0;
#X connect 7 0 10 0;
#X connect 7 1 1 0;
#X connect 7 1 2 0;
#X connect 10 0 9 0;
#X connect 10 1 11 0;
#X connect 10 2 12 0;
#X connect 10 3 8 0;
